<?xml version="1.0" encoding="UTF-8" standalone="no"?>
<!DOCTYPE svg PUBLIC "-//W3C//DTD SVG 1.1//EN"
 "http://www.w3.org/Graphics/SVG/1.1/DTD/svg11.dtd">
<!-- Generated by graphviz version 14.1.1 (20251213.1925)
 -->
<!-- Title: G Pages: 1 -->
<svg width="213pt" height="368pt"
 viewBox="0.00 0.00 213.00 368.00" xmlns="http://www.w3.org/2000/svg" xmlns:xlink="http://www.w3.org/1999/xlink">
<g id="graph0" class="graph" transform="scale(1 1) rotate(0) translate(4 364.1)">
<title>G</title>
<polygon fill="white" stroke="none" points="-4,4 -4,-364.1 208.75,-364.1 208.75,4 -4,4"/>
<!-- nil -->
<g id="node1" class="node">
<title>nil</title>
<ellipse fill="none" stroke="black" cx="104" cy="-283.5" rx="36" ry="36"/>
<text xml:space="preserve" text-anchor="middle" x="104" y="-278.07" font-family="Arial" font-size="14.00">nil</text>
</g>
<!-- on -->
<g id="node3" class="node">
<title>on</title>
<ellipse fill="none" stroke="black" cx="36" cy="-159.75" rx="36" ry="36"/>
<text xml:space="preserve" text-anchor="middle" x="36" y="-154.32" font-family="Arial" font-size="14.00">on</text>
</g>
<!-- nil&#45;&gt;on -->
<g id="edge2" class="edge">
<title>nil&#45;&gt;on</title>
<path fill="none" stroke="black" d="M86.66,-251.46C78.19,-236.29 67.89,-217.84 58.79,-201.55"/>
<polygon fill="black" stroke="black" points="61.97,-200.08 54.04,-193.05 55.86,-203.49 61.97,-200.08"/>
<text xml:space="preserve" text-anchor="middle" x="96.95" y="-216.2" font-family="Arial" font-size="14.00">turn_on</text>
</g>
<!-- off -->
<g id="node4" class="node">
<title>off</title>
<ellipse fill="none" stroke="black" cx="105" cy="-36" rx="36" ry="36"/>
<text xml:space="preserve" text-anchor="middle" x="105" y="-30.57" font-family="Arial" font-size="14.00">off</text>
</g>
<!-- nil&#45;&gt;off -->
<g id="edge5" class="edge">
<title>nil&#45;&gt;off</title>
<path fill="none" stroke="black" d="M122.28,-252.38C131.03,-236.21 140.55,-215.58 145,-195.75 155.3,-149.84 156.81,-133.95 140,-90 138.06,-84.92 135.57,-79.84 132.81,-74.94"/>
<polygon fill="black" stroke="black" points="135.85,-73.2 127.66,-66.48 129.87,-76.84 135.85,-73.2"/>
<text xml:space="preserve" text-anchor="middle" x="175.59" y="-154.32" font-family="Arial" font-size="14.00">turn_off</text>
</g>
<!-- starting_state -->
<g id="node2" class="node">
<title>starting_state</title>
<ellipse fill="black" stroke="black" cx="104" cy="-358.3" rx="1.8" ry="1.8"/>
</g>
<!-- starting_state&#45;&gt;nil -->
<g id="edge1" class="edge">
<title>starting_state&#45;&gt;nil</title>
<path fill="none" stroke="black" d="M104,-356.04C104,-352.6 104,-342.58 104,-331.09"/>
<polygon fill="black" stroke="black" points="107.5,-331.29 104,-321.29 100.5,-331.29 107.5,-331.29"/>
</g>
<!-- on&#45;&gt;on -->
<g id="edge3" class="edge">
<title>on&#45;&gt;on</title>
<path fill="none" stroke="black" d="M70.54,-171.35C81.42,-171.17 90,-167.3 90,-159.75 90,-155.15 86.81,-151.91 81.86,-150.05"/>
<polygon fill="black" stroke="black" points="82.47,-146.6 72.03,-148.4 81.31,-153.51 82.47,-146.6"/>
<text xml:space="preserve" text-anchor="middle" x="112.88" y="-154.32" font-family="Arial" font-size="14.00">turn_on</text>
</g>
<!-- on&#45;&gt;off -->
<g id="edge6" class="edge">
<title>on&#45;&gt;off</title>
<path fill="none" stroke="black" d="M28.12,-124.45C27.14,-112.98 27.98,-100.45 33.25,-90 39.8,-77.02 51.2,-66.43 63.01,-58.22"/>
<polygon fill="black" stroke="black" points="64.67,-61.31 71.21,-52.97 60.9,-55.42 64.67,-61.31"/>
<text xml:space="preserve" text-anchor="middle" x="56.12" y="-92.45" font-family="Arial" font-size="14.00">turn_off</text>
</g>
<!-- off&#45;&gt;on -->
<g id="edge4" class="edge">
<title>off&#45;&gt;on</title>
<path fill="none" stroke="black" d="M97.04,-71.39C93.63,-82.76 89.01,-95.19 83,-105.75 79.16,-112.5 74.35,-119.14 69.29,-125.33"/>
<polygon fill="black" stroke="black" points="66.66,-123.01 62.76,-132.86 71.95,-127.59 66.66,-123.01"/>
<text xml:space="preserve" text-anchor="middle" x="112.76" y="-92.45" font-family="Arial" font-size="14.00">turn_on</text>
</g>
<!-- off&#45;&gt;off -->
<g id="edge7" class="edge">
<title>off&#45;&gt;off</title>
<path fill="none" stroke="black" d="M139.54,-47.6C150.42,-47.42 159,-43.55 159,-36 159,-31.4 155.81,-28.16 150.86,-26.3"/>
<polygon fill="black" stroke="black" points="151.47,-22.85 141.03,-24.65 150.31,-29.76 151.47,-22.85"/>
<text xml:space="preserve" text-anchor="middle" x="181.88" y="-30.57" font-family="Arial" font-size="14.00">turn_off</text>
</g>
</g>
</svg>
